<svg width="508" height="509" viewBox="0 0 508 509" fill="none" xmlns="http://www.w3.org/2000/svg">
<path d="M212 125L211.783 125.224C202.629 127.466 194.081 131.898 187.445 138.533C167.66 158.319 88.1071 237.871 88 237.979L88.0654 237.976L38.2197 287.823C30.0214 296.022 25.3659 307.433 24.2607 319.36L23.8164 319.821C23.8164 319.821 23.8163 207.185 23.8164 179.185C23.8165 151.185 49.6994 125 76.8496 125H212Z" fill="url(#paint0_linear_38_52)"/>
<path d="M133.066 193L133.071 193.311C128.183 201.37 125.273 210.548 125.273 219.932C125.272 247.913 125.273 360.418 125.273 360.569L125.317 360.521L125.318 431.015C125.318 442.609 130.096 453.97 137.748 463.185L137.759 463.825C137.759 463.825 58.1133 384.179 38.3143 364.38C18.5155 344.581 18.3021 307.764 37.5001 288.566L133.066 193Z" fill="url(#paint1_linear_38_52)"/>
<path d="M125 296.325L125.224 296.542C127.466 305.697 131.898 314.244 138.533 320.88C158.319 340.666 237.871 420.218 237.979 420.325L237.976 420.26L287.823 470.105C296.022 478.304 307.433 482.959 319.36 484.064L319.821 484.509C319.821 484.509 207.185 484.509 179.185 484.509C151.185 484.509 125 458.626 125 431.476L125 296.325Z" fill="url(#paint2_linear_38_52)"/>
<path d="M193 375.259L193.311 375.254C201.37 380.142 210.548 383.053 219.932 383.053C247.913 383.053 360.418 383.053 360.569 383.053L360.521 383.008L431.015 383.007C442.609 383.007 453.97 378.23 463.185 370.577L463.825 370.566C463.825 370.566 384.179 450.212 364.38 470.011C344.581 489.81 307.764 490.023 288.566 470.825L193 375.259Z" fill="url(#paint3_linear_38_52)"/>
<path d="M295.825 383.325L296.042 383.102C305.197 380.859 313.745 376.427 320.38 369.792C340.166 350.007 419.718 270.454 419.825 270.347L419.76 270.35L469.606 220.502C477.804 212.304 482.46 200.892 483.565 188.965L484.009 188.504C484.009 188.504 484.009 301.141 484.009 329.141C484.009 357.14 458.126 383.325 430.976 383.325L295.825 383.325Z" fill="url(#paint4_linear_38_52)"/>
<path d="M374.76 315.325L374.755 315.014C379.643 306.955 382.553 297.777 382.553 288.393C382.553 260.412 382.553 147.908 382.553 147.756L382.509 147.804L382.507 77.3106C382.507 65.7164 377.73 54.355 370.078 45.14L370.066 44.4998C370.066 44.4998 449.712 124.146 469.511 143.945C489.31 163.744 489.523 200.561 470.325 219.759L374.76 315.325Z" fill="url(#paint5_linear_38_52)"/>
<path d="M382.825 212L382.602 211.783C380.36 202.629 375.928 194.081 369.292 187.445C349.507 167.66 269.954 88.1071 269.847 88L269.85 88.0654L220.002 38.2197C211.804 30.0215 200.392 25.3659 188.465 24.2608L188.004 23.8164C188.004 23.8164 300.641 23.8163 328.641 23.8164C356.641 23.8165 382.825 49.6994 382.825 76.8496L382.825 212Z" fill="url(#paint6_linear_38_52)"/>
<path d="M314.825 133.066L314.514 133.071C306.455 128.183 297.277 125.273 287.893 125.273C259.912 125.272 147.408 125.273 147.256 125.273L147.305 125.317L76.8108 125.318C65.2167 125.318 53.8553 130.096 44.6402 137.748L44.0001 137.759C44.0001 137.759 123.646 58.1133 143.445 38.3143C163.244 18.5155 200.061 18.3021 219.26 37.5001L314.825 133.066Z" fill="url(#paint7_linear_38_52)"/>
<defs>
<linearGradient id="paint0_linear_38_52" x1="117.908" y1="125" x2="117.908" y2="319.821" gradientUnits="userSpaceOnUse">
<stop stop-color="#0ED764"/>
<stop offset="1" stop-color="#077135"/>
</linearGradient>
<linearGradient id="paint1_linear_38_52" x1="66.533" y1="259.533" x2="204.292" y2="397.292" gradientUnits="userSpaceOnUse">
<stop stop-color="#123E21"/>
<stop offset="1" stop-color="#30A457"/>
</linearGradient>
<linearGradient id="paint2_linear_38_52" x1="125" y1="390.417" x2="319.821" y2="390.417" gradientUnits="userSpaceOnUse">
<stop stop-color="#0ED764"/>
<stop offset="1" stop-color="#077135"/>
</linearGradient>
<linearGradient id="paint3_linear_38_52" x1="259.533" y1="441.792" x2="397.292" y2="304.033" gradientUnits="userSpaceOnUse">
<stop stop-color="#123E21"/>
<stop offset="1" stop-color="#30A457"/>
</linearGradient>
<linearGradient id="paint4_linear_38_52" x1="389.917" y1="383.325" x2="389.917" y2="188.504" gradientUnits="userSpaceOnUse">
<stop stop-color="#0ED764"/>
<stop offset="1" stop-color="#077135"/>
</linearGradient>
<linearGradient id="paint5_linear_38_52" x1="441.292" y1="248.792" x2="303.533" y2="111.033" gradientUnits="userSpaceOnUse">
<stop stop-color="#123E21"/>
<stop offset="1" stop-color="#30A457"/>
</linearGradient>
<linearGradient id="paint6_linear_38_52" x1="382.825" y1="117.908" x2="188.004" y2="117.908" gradientUnits="userSpaceOnUse">
<stop stop-color="#0ED764"/>
<stop offset="1" stop-color="#077135"/>
</linearGradient>
<linearGradient id="paint7_linear_38_52" x1="248.293" y1="66.533" x2="110.533" y2="204.292" gradientUnits="userSpaceOnUse">
<stop stop-color="#123E21"/>
<stop offset="1" stop-color="#30A457"/>
</linearGradient>
</defs>
</svg>
