<svg width="680" height="660" viewBox="0 0 680 660" fill="none" xmlns="http://www.w3.org/2000/svg">
<path d="M0 25C0 11.1929 11.1929 0 25 0H655C668.807 0 680 11.1929 680 25V635C680 648.807 668.807 660 655 660H25C11.1929 660 0 648.807 0 635V25Z" fill="#FF7C5B"/>
<path d="M138.239 439.7V465.65C138.239 468.45 138.239 470.6 136.339 472.8C133.689 475.9 129.939 475.9 128.639 475.9C127.489 475.9 126.189 475.85 123.839 475.4V470.25C125.739 471.2 127.139 471.25 128.489 471.25C129.889 471.25 131.739 470.75 132.639 469.4C133.439 468.2 133.439 466.6 133.439 463.6V439.7H138.239ZM143.139 463.25C143.139 459.45 144.839 450.7 155.039 450.7C160.539 450.7 166.239 454.55 166.239 463C166.239 471.45 160.989 475.75 154.689 475.75C148.089 475.75 143.139 471.35 143.139 463.25ZM147.489 463.45C147.489 466.25 148.339 472.55 154.639 472.55C159.439 472.55 161.939 468.8 161.939 462.7C161.939 458.65 160.339 453.9 154.989 453.9C147.539 453.9 147.489 461.95 147.489 463.45ZM174.538 444.3H170.688V439.7H174.538V444.3ZM174.538 475H170.688V451.45H174.538V475ZM199.389 475H195.439V459.55C195.439 455.9 192.839 454.45 190.089 454.45C186.789 454.45 183.839 456.85 183.839 461.05V475H179.839V451.45H183.839V454.9C184.839 453.15 187.189 450.7 191.239 450.7C192.289 450.7 195.839 451 197.939 453.95C199.289 455.85 199.389 457.9 199.389 460.1V475ZM235.587 451.45L227.087 475H223.487L214.887 451.45H219.037L225.287 469.5L231.487 451.45H235.587ZM237.113 463.25C237.113 459.45 238.813 450.7 249.013 450.7C254.513 450.7 260.213 454.55 260.213 463C260.213 471.45 254.963 475.75 248.663 475.75C242.063 475.75 237.113 471.35 237.113 463.25ZM241.463 463.45C241.463 466.25 242.313 472.55 248.613 472.55C253.413 472.55 255.913 468.8 255.913 462.7C255.913 458.65 254.313 453.9 248.963 453.9C241.513 453.9 241.463 461.95 241.463 463.45ZM264.463 451.45H268.463V455.75C269.013 454.7 269.713 453.8 270.663 453.05C271.613 452.3 273.463 451.15 276.513 451.15V455.45C276.013 455.35 275.463 455.3 274.963 455.3C272.113 455.3 269.613 456.85 268.813 459.75C268.513 460.95 268.463 461.8 268.463 464.1V475H264.463V451.45ZM282.137 463.95V464.25C282.137 467.9 284.137 472.75 289.787 472.75C293.937 472.75 295.487 469.4 295.987 467.25L300.037 467.8C299.487 469.45 297.287 475.75 289.387 475.75C283.587 475.75 277.837 472.3 277.837 463C277.837 454.05 284.337 450.7 289.237 450.7C294.387 450.7 300.037 454.15 300.037 463.3V463.95H282.137ZM282.237 461.05H295.687C295.687 457.15 292.937 453.8 288.937 453.8C284.687 453.8 282.587 457.3 282.237 461.05ZM302.511 467.4L307.061 466.75C307.061 468.3 307.211 469.65 308.361 470.9C309.761 472.45 311.711 472.7 313.661 472.7C315.611 472.7 319.111 472.1 319.111 468.75C319.111 465.9 316.361 465.4 314.211 465L311.911 464.55C305.461 463.3 303.511 461 303.511 457.7C303.511 452.55 308.411 450.7 312.661 450.7C317.611 450.7 320.311 453.15 321.461 454.85C322.411 456.3 322.611 457.75 322.711 458.45L318.411 458.95C318.361 457.8 318.311 457.3 318.061 456.75C317.461 455.45 315.511 453.75 312.111 453.75C308.861 453.75 307.461 455.7 307.461 457.2C307.461 459.25 309.561 460.05 313.161 460.9L315.461 461.45C319.861 462.5 323.311 464 323.311 468.3C323.311 472.8 319.061 475.75 313.461 475.75C305.861 475.75 303.211 472 302.511 467.4ZM344.811 451.45H349.261V454.75H344.811V475H340.911V454.75H337.011V451.45H340.911V449.4C340.911 446.2 340.911 444.7 341.511 443.2C342.761 440 346.211 439.95 347.111 439.95C347.611 439.95 348.661 440 350.011 440.25V443.4C349.861 443.35 348.661 443.15 347.811 443.15C345.761 443.15 344.811 444.3 344.811 446.95V451.45ZM352.285 451.45H356.285V455.75C356.835 454.7 357.535 453.8 358.485 453.05C359.435 452.3 361.285 451.15 364.335 451.15V455.45C363.835 455.35 363.285 455.3 362.785 455.3C359.935 455.3 357.435 456.85 356.635 459.75C356.335 460.95 356.285 461.8 356.285 464.1V475H352.285V451.45ZM369.959 463.95V464.25C369.959 467.9 371.959 472.75 377.609 472.75C381.759 472.75 383.309 469.4 383.809 467.25L387.859 467.8C387.309 469.45 385.109 475.75 377.209 475.75C371.409 475.75 365.659 472.3 365.659 463C365.659 454.05 372.159 450.7 377.059 450.7C382.209 450.7 387.859 454.15 387.859 463.3V463.95H369.959ZM370.059 461.05H383.509C383.509 457.15 380.759 453.8 376.759 453.8C372.509 453.8 370.409 457.3 370.059 461.05ZM413.633 475H409.633V472C408.433 473.4 406.233 475.75 401.583 475.75C394.683 475.75 390.733 470.45 390.733 463.15C390.733 454 396.733 450.7 401.533 450.7C405.833 450.7 408.783 453.2 409.633 454.55V439.7H413.633V475ZM395.033 463.3C395.033 467.45 396.683 472.2 402.383 472.2C405.883 472.2 409.733 470.1 409.733 462.9C409.733 458.05 406.933 454.35 402.483 454.35C397.083 454.35 395.033 458.85 395.033 463.3ZM433.159 460.9V460.1C433.159 457.9 433.109 453.75 427.909 453.75C424.609 453.75 422.809 455.4 422.809 458.35V458.7L418.659 458.45C418.659 457.3 419.359 450.7 427.709 450.7C429.159 450.7 431.659 450.95 433.609 452.1C436.959 454 437.159 456.45 437.159 460.65V468.95C437.159 470.35 437.209 471.7 438.959 471.7C439.459 471.7 439.709 471.6 440.159 471.5V474.85C438.959 475.25 438.259 475.3 437.609 475.3C437.409 475.3 435.959 475.3 435.109 474.7C434.159 474 433.559 472.5 433.509 471.8C432.409 473 430.009 475.65 425.459 475.65C420.759 475.65 417.459 472.95 417.459 468.9C417.459 467.8 417.759 465.5 420.009 463.8C422.409 462 426.559 461.35 429.559 461.15L433.159 460.9ZM433.209 463.5C431.359 463.8 426.609 464.4 424.759 465.2C424.009 465.5 421.859 466.5 421.859 468.8C421.859 470.55 423.159 472.3 426.309 472.3C428.459 472.3 433.209 471.4 433.209 465.35V463.5ZM464.709 451.45V475.45C464.709 484.15 459.259 486.45 453.709 486.45C448.259 486.45 443.559 483.75 443.009 477.7H447.509C447.509 481.4 450.209 483.2 454.009 483.2C459.009 483.2 460.559 480.55 460.559 476.1V471.55C457.859 475.25 454.709 475.75 452.809 475.75C446.809 475.75 441.909 471.25 441.909 463.35C441.909 457.85 444.409 450.7 452.859 450.7C455.809 450.7 458.309 452.05 460.559 454.65V451.45H464.709ZM460.709 462.9C460.709 457.5 457.609 454.3 453.309 454.3C449.259 454.3 446.009 457.35 446.009 463.25C446.009 468.25 448.309 472.15 453.459 472.15C458.609 472.15 460.709 468 460.709 462.9ZM468.486 467.4L473.036 466.75C473.036 468.3 473.186 469.65 474.336 470.9C475.736 472.45 477.686 472.7 479.636 472.7C481.586 472.7 485.086 472.1 485.086 468.75C485.086 465.9 482.336 465.4 480.186 465L477.886 464.55C471.436 463.3 469.486 461 469.486 457.7C469.486 452.55 474.386 450.7 478.636 450.7C483.586 450.7 486.286 453.15 487.436 454.85C488.386 456.3 488.586 457.75 488.686 458.45L484.386 458.95C484.336 457.8 484.286 457.3 484.036 456.75C483.436 455.45 481.486 453.75 478.086 453.75C474.836 453.75 473.436 455.7 473.436 457.2C473.436 459.25 475.536 460.05 479.136 460.9L481.436 461.45C485.836 462.5 489.286 464 489.286 468.3C489.286 472.8 485.036 475.75 479.436 475.75C471.836 475.75 469.186 472 468.486 467.4ZM493.111 439.7H497.111V454.7C498.961 451.95 502.061 450.7 505.211 450.7C511.311 450.7 516.061 455.3 516.061 463.2C516.061 470.15 512.461 475.75 505.161 475.75C500.611 475.75 498.211 473.4 497.111 471.95V475H493.111V439.7ZM497.011 463.3C497.011 467.35 498.811 472.35 504.511 472.35C507.611 472.35 511.811 470.4 511.811 462.85C511.811 457.25 508.411 454.35 504.511 454.35C501.311 454.35 497.011 456.35 497.011 463.3ZM534.238 460.9V460.1C534.238 457.9 534.188 453.75 528.988 453.75C525.688 453.75 523.888 455.4 523.888 458.35V458.7L519.738 458.45C519.738 457.3 520.438 450.7 528.788 450.7C530.238 450.7 532.738 450.95 534.688 452.1C538.038 454 538.238 456.45 538.238 460.65V468.95C538.238 470.35 538.288 471.7 540.038 471.7C540.538 471.7 540.788 471.6 541.238 471.5V474.85C540.038 475.25 539.338 475.3 538.688 475.3C538.488 475.3 537.038 475.3 536.188 474.7C535.238 474 534.638 472.5 534.588 471.8C533.488 473 531.088 475.65 526.538 475.65C521.838 475.65 518.538 472.95 518.538 468.9C518.538 467.8 518.838 465.5 521.088 463.8C523.488 462 527.638 461.35 530.638 461.15L534.238 460.9ZM534.288 463.5C532.438 463.8 527.688 464.4 525.838 465.2C525.088 465.5 522.938 466.5 522.938 468.8C522.938 470.55 524.238 472.3 527.388 472.3C529.538 472.3 534.288 471.4 534.288 465.35V463.5ZM544.188 451.45H548.188V455.75C548.738 454.7 549.438 453.8 550.388 453.05C551.338 452.3 553.188 451.15 556.238 451.15V455.45C555.738 455.35 555.188 455.3 554.688 455.3C551.838 455.3 549.338 456.85 548.538 459.75C548.238 460.95 548.188 461.8 548.188 464.1V475H544.188V451.45Z" fill="#FFE429"/>
<path d="M194.357 517.545L199.215 531.761H199.411L204.269 517.545H207.115L200.834 535H197.791L191.51 517.545H194.357ZM213.281 535.264C211.991 535.264 210.88 534.989 209.949 534.438C209.022 533.881 208.306 533.099 207.801 532.094C207.301 531.082 207.051 529.898 207.051 528.54C207.051 527.199 207.301 526.017 207.801 524.994C208.306 523.972 209.011 523.173 209.914 522.599C210.824 522.026 211.886 521.739 213.102 521.739C213.841 521.739 214.556 521.861 215.25 522.105C215.943 522.349 216.565 522.733 217.116 523.256C217.667 523.778 218.102 524.457 218.42 525.293C218.738 526.122 218.897 527.131 218.897 528.318V529.222H208.491V527.312H216.4C216.4 526.642 216.264 526.048 215.991 525.531C215.718 525.009 215.335 524.597 214.841 524.295C214.352 523.994 213.778 523.844 213.119 523.844C212.403 523.844 211.778 524.02 211.244 524.372C210.716 524.719 210.306 525.173 210.017 525.736C209.733 526.293 209.591 526.898 209.591 527.551V529.043C209.591 529.918 209.744 530.662 210.051 531.276C210.363 531.889 210.798 532.358 211.355 532.682C211.912 533 212.562 533.159 213.306 533.159C213.789 533.159 214.23 533.091 214.627 532.955C215.025 532.812 215.369 532.602 215.659 532.324C215.949 532.045 216.17 531.702 216.324 531.293L218.735 531.727C218.542 532.437 218.196 533.06 217.696 533.594C217.201 534.122 216.579 534.534 215.829 534.83C215.085 535.119 214.235 535.264 213.281 535.264ZM226.145 535.256C225.089 535.256 224.145 534.986 223.316 534.446C222.492 533.901 221.844 533.125 221.373 532.119C220.907 531.108 220.674 529.895 220.674 528.48C220.674 527.065 220.91 525.855 221.381 524.849C221.858 523.844 222.512 523.074 223.341 522.54C224.171 522.006 225.111 521.739 226.162 521.739C226.975 521.739 227.628 521.875 228.123 522.148C228.623 522.415 229.009 522.727 229.282 523.085C229.56 523.443 229.776 523.759 229.929 524.031H230.083V517.545H232.631V535H230.143V532.963H229.929C229.776 533.241 229.554 533.56 229.265 533.918C228.981 534.276 228.589 534.588 228.089 534.855C227.589 535.122 226.941 535.256 226.145 535.256ZM226.708 533.082C227.441 533.082 228.06 532.889 228.566 532.503C229.077 532.111 229.464 531.568 229.725 530.875C229.992 530.182 230.125 529.375 230.125 528.455C230.125 527.545 229.995 526.75 229.733 526.068C229.472 525.386 229.089 524.855 228.583 524.474C228.077 524.094 227.452 523.903 226.708 523.903C225.941 523.903 225.302 524.102 224.79 524.5C224.279 524.898 223.893 525.44 223.631 526.128C223.375 526.815 223.248 527.591 223.248 528.455C223.248 529.33 223.378 530.116 223.64 530.815C223.901 531.514 224.287 532.068 224.799 532.477C225.316 532.881 225.952 533.082 226.708 533.082ZM245.469 535.29C244.64 535.29 243.89 535.136 243.219 534.83C242.549 534.517 242.018 534.065 241.626 533.474C241.239 532.884 241.046 532.159 241.046 531.301C241.046 530.562 241.188 529.955 241.472 529.477C241.756 529 242.14 528.622 242.623 528.344C243.106 528.065 243.646 527.855 244.242 527.713C244.839 527.571 245.447 527.463 246.066 527.389C246.85 527.298 247.486 527.224 247.975 527.168C248.464 527.105 248.819 527.006 249.04 526.869C249.262 526.733 249.373 526.511 249.373 526.205V526.145C249.373 525.401 249.163 524.824 248.742 524.415C248.327 524.006 247.708 523.801 246.884 523.801C246.026 523.801 245.35 523.991 244.856 524.372C244.367 524.747 244.029 525.165 243.842 525.625L241.447 525.08C241.731 524.284 242.146 523.642 242.691 523.153C243.242 522.659 243.876 522.301 244.592 522.08C245.308 521.852 246.06 521.739 246.85 521.739C247.373 521.739 247.927 521.801 248.512 521.926C249.103 522.045 249.654 522.267 250.165 522.591C250.683 522.915 251.106 523.378 251.435 523.98C251.765 524.577 251.93 525.352 251.93 526.307V535H249.441V533.21H249.339C249.174 533.54 248.927 533.864 248.597 534.182C248.268 534.5 247.844 534.764 247.327 534.974C246.81 535.185 246.191 535.29 245.469 535.29ZM246.023 533.244C246.728 533.244 247.33 533.105 247.83 532.827C248.336 532.548 248.719 532.185 248.981 531.736C249.248 531.281 249.381 530.795 249.381 530.278V528.591C249.29 528.682 249.114 528.767 248.853 528.847C248.597 528.92 248.305 528.986 247.975 529.043C247.646 529.094 247.325 529.142 247.012 529.188C246.7 529.227 246.438 529.261 246.228 529.29C245.734 529.352 245.282 529.457 244.873 529.605C244.469 529.753 244.146 529.966 243.901 530.244C243.663 530.517 243.543 530.881 243.543 531.335C243.543 531.966 243.776 532.443 244.242 532.767C244.708 533.085 245.302 533.244 246.023 533.244ZM260.955 521.909V523.955H253.804V521.909H260.955ZM255.722 518.773H258.27V531.156C258.27 531.651 258.344 532.023 258.492 532.273C258.639 532.517 258.83 532.685 259.063 532.776C259.301 532.861 259.56 532.903 259.838 532.903C260.043 532.903 260.222 532.889 260.375 532.861C260.528 532.832 260.648 532.81 260.733 532.793L261.193 534.898C261.046 534.955 260.835 535.011 260.563 535.068C260.29 535.131 259.949 535.165 259.54 535.17C258.869 535.182 258.244 535.062 257.665 534.812C257.085 534.562 256.617 534.176 256.259 533.653C255.901 533.131 255.722 532.474 255.722 531.685V518.773ZM278.975 525.105L276.665 525.514C276.569 525.219 276.415 524.937 276.205 524.67C276 524.403 275.722 524.185 275.37 524.014C275.017 523.844 274.577 523.759 274.049 523.759C273.327 523.759 272.725 523.92 272.242 524.244C271.759 524.562 271.517 524.974 271.517 525.48C271.517 525.918 271.679 526.27 272.003 526.537C272.327 526.804 272.85 527.023 273.571 527.193L275.651 527.67C276.855 527.949 277.753 528.378 278.344 528.957C278.935 529.537 279.23 530.29 279.23 531.216C279.23 532 279.003 532.699 278.549 533.312C278.1 533.92 277.472 534.398 276.665 534.744C275.864 535.091 274.935 535.264 273.878 535.264C272.412 535.264 271.216 534.952 270.29 534.327C269.364 533.696 268.796 532.801 268.586 531.642L271.049 531.267C271.202 531.909 271.517 532.395 271.995 532.724C272.472 533.048 273.094 533.21 273.861 533.21C274.696 533.21 275.364 533.037 275.864 532.69C276.364 532.338 276.614 531.909 276.614 531.403C276.614 530.994 276.461 530.651 276.154 530.372C275.853 530.094 275.39 529.884 274.765 529.741L272.549 529.256C271.327 528.977 270.424 528.534 269.838 527.926C269.259 527.318 268.969 526.548 268.969 525.616C268.969 524.844 269.185 524.168 269.617 523.588C270.049 523.009 270.645 522.557 271.407 522.233C272.168 521.903 273.04 521.739 274.023 521.739C275.438 521.739 276.551 522.045 277.364 522.659C278.176 523.267 278.713 524.082 278.975 525.105ZM281.552 539.909V521.909H284.041V524.031H284.254C284.402 523.759 284.615 523.443 284.893 523.085C285.172 522.727 285.558 522.415 286.052 522.148C286.547 521.875 287.2 521.739 288.013 521.739C289.069 521.739 290.013 522.006 290.842 522.54C291.672 523.074 292.322 523.844 292.794 524.849C293.271 525.855 293.51 527.065 293.51 528.48C293.51 529.895 293.274 531.108 292.802 532.119C292.331 533.125 291.683 533.901 290.859 534.446C290.035 534.986 289.095 535.256 288.038 535.256C287.243 535.256 286.592 535.122 286.086 534.855C285.586 534.588 285.194 534.276 284.91 533.918C284.626 533.56 284.407 533.241 284.254 532.963H284.101V539.909H281.552ZM284.049 528.455C284.049 529.375 284.183 530.182 284.45 530.875C284.717 531.568 285.103 532.111 285.609 532.503C286.115 532.889 286.734 533.082 287.467 533.082C288.228 533.082 288.865 532.881 289.376 532.477C289.888 532.068 290.274 531.514 290.535 530.815C290.802 530.116 290.936 529.33 290.936 528.455C290.936 527.591 290.805 526.815 290.544 526.128C290.288 525.44 289.902 524.898 289.385 524.5C288.873 524.102 288.234 523.903 287.467 523.903C286.728 523.903 286.103 524.094 285.592 524.474C285.086 524.855 284.703 525.386 284.441 526.068C284.18 526.75 284.049 527.545 284.049 528.455ZM295.885 535V521.909H298.433V535H295.885ZM297.172 519.889C296.729 519.889 296.348 519.741 296.03 519.446C295.717 519.145 295.561 518.787 295.561 518.372C295.561 517.952 295.717 517.594 296.03 517.298C296.348 516.997 296.729 516.847 297.172 516.847C297.615 516.847 297.993 516.997 298.305 517.298C298.623 517.594 298.783 517.952 298.783 518.372C298.783 518.787 298.623 519.145 298.305 519.446C297.993 519.741 297.615 519.889 297.172 519.889ZM303.93 527.227V535H301.381V521.909H303.827V524.04H303.989C304.29 523.347 304.762 522.79 305.404 522.369C306.052 521.949 306.867 521.739 307.85 521.739C308.742 521.739 309.523 521.926 310.194 522.301C310.864 522.67 311.384 523.222 311.754 523.955C312.123 524.687 312.307 525.594 312.307 526.673V535H309.759V526.98C309.759 526.031 309.512 525.29 309.018 524.756C308.523 524.216 307.844 523.946 306.981 523.946C306.39 523.946 305.864 524.074 305.404 524.33C304.95 524.585 304.589 524.96 304.322 525.455C304.06 525.943 303.93 526.534 303.93 527.227ZM317.793 527.227V535H315.245V521.909H317.691V524.04H317.853C318.154 523.347 318.626 522.79 319.268 522.369C319.916 521.949 320.731 521.739 321.714 521.739C322.606 521.739 323.387 521.926 324.058 522.301C324.728 522.67 325.248 523.222 325.617 523.955C325.987 524.687 326.171 525.594 326.171 526.673V535H323.623V526.98C323.623 526.031 323.376 525.29 322.881 524.756C322.387 524.216 321.708 523.946 320.845 523.946C320.254 523.946 319.728 524.074 319.268 524.33C318.813 524.585 318.452 524.96 318.185 525.455C317.924 525.943 317.793 526.534 317.793 527.227ZM334.751 535.264C333.461 535.264 332.35 534.989 331.419 534.438C330.492 533.881 329.776 533.099 329.271 532.094C328.771 531.082 328.521 529.898 328.521 528.54C328.521 527.199 328.771 526.017 329.271 524.994C329.776 523.972 330.481 523.173 331.384 522.599C332.294 522.026 333.356 521.739 334.572 521.739C335.311 521.739 336.026 521.861 336.72 522.105C337.413 522.349 338.035 522.733 338.586 523.256C339.137 523.778 339.572 524.457 339.89 525.293C340.208 526.122 340.367 527.131 340.367 528.318V529.222H329.961V527.312H337.87C337.87 526.642 337.734 526.048 337.461 525.531C337.188 525.009 336.805 524.597 336.311 524.295C335.822 523.994 335.248 523.844 334.589 523.844C333.873 523.844 333.248 524.02 332.714 524.372C332.186 524.719 331.776 525.173 331.487 525.736C331.203 526.293 331.061 526.898 331.061 527.551V529.043C331.061 529.918 331.214 530.662 331.521 531.276C331.833 531.889 332.268 532.358 332.825 532.682C333.382 533 334.032 533.159 334.776 533.159C335.259 533.159 335.7 533.091 336.097 532.955C336.495 532.812 336.839 532.602 337.129 532.324C337.419 532.045 337.64 531.702 337.794 531.293L340.205 531.727C340.012 532.437 339.666 533.06 339.166 533.594C338.671 534.122 338.049 534.534 337.299 534.83C336.555 535.119 335.705 535.264 334.751 535.264ZM354.816 521.909V523.955H347.419V521.909H354.816ZM349.447 535V520.392C349.447 519.574 349.626 518.895 349.984 518.355C350.342 517.81 350.816 517.403 351.407 517.136C351.998 516.864 352.64 516.727 353.334 516.727C353.845 516.727 354.282 516.77 354.646 516.855C355.01 516.935 355.28 517.009 355.456 517.077L354.859 519.139C354.74 519.105 354.586 519.065 354.399 519.02C354.211 518.969 353.984 518.943 353.717 518.943C353.098 518.943 352.655 519.097 352.387 519.403C352.126 519.71 351.995 520.153 351.995 520.733V535H349.447ZM359.514 517.545V535H356.966V517.545H359.514ZM366.272 535.29C365.442 535.29 364.692 535.136 364.022 534.83C363.351 534.517 362.82 534.065 362.428 533.474C362.042 532.884 361.849 532.159 361.849 531.301C361.849 530.562 361.991 529.955 362.275 529.477C362.559 529 362.942 528.622 363.425 528.344C363.908 528.065 364.448 527.855 365.045 527.713C365.641 527.571 366.249 527.463 366.869 527.389C367.653 527.298 368.289 527.224 368.778 527.168C369.266 527.105 369.621 527.006 369.843 526.869C370.065 526.733 370.175 526.511 370.175 526.205V526.145C370.175 525.401 369.965 524.824 369.545 524.415C369.13 524.006 368.511 523.801 367.687 523.801C366.829 523.801 366.153 523.991 365.658 524.372C365.17 524.747 364.832 525.165 364.644 525.625L362.249 525.08C362.533 524.284 362.948 523.642 363.494 523.153C364.045 522.659 364.678 522.301 365.394 522.08C366.11 521.852 366.863 521.739 367.653 521.739C368.175 521.739 368.729 521.801 369.315 521.926C369.905 522.045 370.457 522.267 370.968 522.591C371.485 522.915 371.908 523.378 372.238 523.98C372.567 524.577 372.732 525.352 372.732 526.307V535H370.244V533.21H370.141C369.976 533.54 369.729 533.864 369.4 534.182C369.07 534.5 368.647 534.764 368.13 534.974C367.613 535.185 366.994 535.29 366.272 535.29ZM366.826 533.244C367.53 533.244 368.133 533.105 368.633 532.827C369.138 532.548 369.522 532.185 369.783 531.736C370.05 531.281 370.184 530.795 370.184 530.278V528.591C370.093 528.682 369.917 528.767 369.655 528.847C369.4 528.92 369.107 528.986 368.778 529.043C368.448 529.094 368.127 529.142 367.815 529.188C367.502 529.227 367.241 529.261 367.03 529.29C366.536 529.352 366.084 529.457 365.675 529.605C365.272 529.753 364.948 529.966 364.704 530.244C364.465 530.517 364.346 530.881 364.346 531.335C364.346 531.966 364.579 532.443 365.045 532.767C365.511 533.085 366.104 533.244 366.826 533.244ZM377.99 530.56L377.973 527.449H378.416L383.632 521.909H386.683L380.734 528.216H380.334L377.99 530.56ZM375.646 535V517.545H378.195V535H375.646ZM383.913 535L379.226 528.778L380.982 526.997L387.041 535H383.913ZM398.335 525.105L396.026 525.514C395.929 525.219 395.776 524.937 395.565 524.67C395.361 524.403 395.083 524.185 394.73 524.014C394.378 523.844 393.938 523.759 393.409 523.759C392.688 523.759 392.085 523.92 391.602 524.244C391.119 524.562 390.878 524.974 390.878 525.48C390.878 525.918 391.04 526.27 391.364 526.537C391.688 526.804 392.21 527.023 392.932 527.193L395.012 527.67C396.216 527.949 397.114 528.378 397.705 528.957C398.296 529.537 398.591 530.29 398.591 531.216C398.591 532 398.364 532.699 397.909 533.312C397.46 533.92 396.833 534.398 396.026 534.744C395.225 535.091 394.296 535.264 393.239 535.264C391.773 535.264 390.577 534.952 389.651 534.327C388.725 533.696 388.156 532.801 387.946 531.642L390.409 531.267C390.563 531.909 390.878 532.395 391.355 532.724C391.833 533.048 392.455 533.21 393.222 533.21C394.057 533.21 394.725 533.037 395.225 532.69C395.725 532.338 395.975 531.909 395.975 531.403C395.975 530.994 395.821 530.651 395.514 530.372C395.213 530.094 394.75 529.884 394.125 529.741L391.909 529.256C390.688 528.977 389.784 528.534 389.199 527.926C388.619 527.318 388.33 526.548 388.33 525.616C388.33 524.844 388.546 524.168 388.977 523.588C389.409 523.009 390.006 522.557 390.767 522.233C391.529 521.903 392.401 521.739 393.384 521.739C394.798 521.739 395.912 522.045 396.725 522.659C397.537 523.267 398.074 524.082 398.335 525.105ZM406.555 535.264C405.265 535.264 404.154 534.989 403.223 534.438C402.296 533.881 401.581 533.099 401.075 532.094C400.575 531.082 400.325 529.898 400.325 528.54C400.325 527.199 400.575 526.017 401.075 524.994C401.581 523.972 402.285 523.173 403.188 522.599C404.098 522.026 405.16 521.739 406.376 521.739C407.115 521.739 407.831 521.861 408.524 522.105C409.217 522.349 409.839 522.733 410.39 523.256C410.941 523.778 411.376 524.457 411.694 525.293C412.012 526.122 412.171 527.131 412.171 528.318V529.222H401.765V527.312H409.674C409.674 526.642 409.538 526.048 409.265 525.531C408.992 525.009 408.609 524.597 408.115 524.295C407.626 523.994 407.052 523.844 406.393 523.844C405.677 523.844 405.052 524.02 404.518 524.372C403.99 524.719 403.581 525.173 403.291 525.736C403.007 526.293 402.865 526.898 402.865 527.551V529.043C402.865 529.918 403.018 530.662 403.325 531.276C403.637 531.889 404.072 532.358 404.629 532.682C405.186 533 405.836 533.159 406.581 533.159C407.063 533.159 407.504 533.091 407.902 532.955C408.299 532.812 408.643 532.602 408.933 532.324C409.223 532.045 409.444 531.702 409.598 531.293L412.009 531.727C411.816 532.437 411.47 533.06 410.97 533.594C410.475 534.122 409.853 534.534 409.103 534.83C408.359 535.119 407.509 535.264 406.555 535.264ZM417.067 527.227V535H414.519V521.909H416.965V524.04H417.127C417.428 523.347 417.9 522.79 418.542 522.369C419.189 521.949 420.005 521.739 420.988 521.739C421.88 521.739 422.661 521.926 423.331 522.301C424.002 522.67 424.522 523.222 424.891 523.955C425.26 524.687 425.445 525.594 425.445 526.673V535H422.897V526.98C422.897 526.031 422.65 525.29 422.155 524.756C421.661 524.216 420.982 523.946 420.118 523.946C419.527 523.946 419.002 524.074 418.542 524.33C418.087 524.585 417.726 524.96 417.459 525.455C417.198 525.943 417.067 526.534 417.067 527.227ZM439.896 535.264C438.606 535.264 437.496 534.989 436.564 534.438C435.638 533.881 434.922 533.099 434.416 532.094C433.916 531.082 433.666 529.898 433.666 528.54C433.666 527.199 433.916 526.017 434.416 524.994C434.922 523.972 435.626 523.173 436.53 522.599C437.439 522.026 438.501 521.739 439.717 521.739C440.456 521.739 441.172 521.861 441.865 522.105C442.558 522.349 443.18 522.733 443.731 523.256C444.283 523.778 444.717 524.457 445.035 525.293C445.354 526.122 445.513 527.131 445.513 528.318V529.222H435.106V527.312H443.016C443.016 526.642 442.879 526.048 442.606 525.531C442.334 525.009 441.95 524.597 441.456 524.295C440.967 523.994 440.393 523.844 439.734 523.844C439.018 523.844 438.393 524.02 437.859 524.372C437.331 524.719 436.922 525.173 436.632 525.736C436.348 526.293 436.206 526.898 436.206 527.551V529.043C436.206 529.918 436.359 530.662 436.666 531.276C436.979 531.889 437.413 532.358 437.97 532.682C438.527 533 439.177 533.159 439.922 533.159C440.405 533.159 440.845 533.091 441.243 532.955C441.641 532.812 441.984 532.602 442.274 532.324C442.564 532.045 442.785 531.702 442.939 531.293L445.351 531.727C445.158 532.437 444.811 533.06 444.311 533.594C443.817 534.122 443.194 534.534 442.444 534.83C441.7 535.119 440.851 535.264 439.896 535.264ZM447.86 535V521.909H450.323V523.989H450.46C450.698 523.284 451.119 522.73 451.721 522.327C452.329 521.918 453.016 521.713 453.783 521.713C453.942 521.713 454.13 521.719 454.346 521.73C454.567 521.741 454.741 521.756 454.866 521.773V524.21C454.764 524.182 454.582 524.151 454.32 524.116C454.059 524.077 453.798 524.057 453.536 524.057C452.934 524.057 452.397 524.185 451.925 524.44C451.46 524.69 451.09 525.04 450.817 525.489C450.545 525.932 450.408 526.437 450.408 527.006V535H447.86ZM467.363 535.256C466.306 535.256 465.363 534.986 464.534 534.446C463.71 533.901 463.062 533.125 462.59 532.119C462.125 531.108 461.892 529.895 461.892 528.48C461.892 527.065 462.127 525.855 462.599 524.849C463.076 523.844 463.73 523.074 464.559 522.54C465.389 522.006 466.329 521.739 467.38 521.739C468.193 521.739 468.846 521.875 469.34 522.148C469.84 522.415 470.227 522.727 470.5 523.085C470.778 523.443 470.994 523.759 471.147 524.031H471.301V517.545H473.849V535H471.36V532.963H471.147C470.994 533.241 470.772 533.56 470.482 533.918C470.198 534.276 469.806 534.588 469.306 534.855C468.806 535.122 468.159 535.256 467.363 535.256ZM467.926 533.082C468.659 533.082 469.278 532.889 469.784 532.503C470.295 532.111 470.681 531.568 470.943 530.875C471.21 530.182 471.343 529.375 471.343 528.455C471.343 527.545 471.213 526.75 470.951 526.068C470.69 525.386 470.306 524.855 469.801 524.474C469.295 524.094 468.67 523.903 467.926 523.903C467.159 523.903 466.519 524.102 466.008 524.5C465.497 524.898 465.11 525.44 464.849 526.128C464.593 526.815 464.465 527.591 464.465 528.455C464.465 529.33 464.596 530.116 464.857 530.815C465.119 531.514 465.505 532.068 466.017 532.477C466.534 532.881 467.17 533.082 467.926 533.082ZM485.299 529.571V521.909H487.855V535H485.35V532.733H485.213C484.912 533.432 484.429 534.014 483.765 534.48C483.105 534.94 482.284 535.17 481.301 535.17C480.461 535.17 479.716 534.986 479.069 534.616C478.426 534.241 477.921 533.688 477.551 532.955C477.188 532.222 477.006 531.315 477.006 530.236V521.909H479.554V529.929C479.554 530.821 479.801 531.531 480.296 532.06C480.79 532.588 481.432 532.852 482.222 532.852C482.699 532.852 483.174 532.733 483.645 532.494C484.123 532.256 484.517 531.895 484.83 531.412C485.148 530.929 485.304 530.315 485.299 529.571Z" fill="#FFE429"/>
<path d="M343.451 188.477C295.842 188.477 256.919 175.994 253.809 160.283L275.255 353.874C275.255 366.787 305.814 377.226 343.451 377.226C381.088 377.226 411.648 366.787 411.648 353.874L433.094 160.283C429.984 175.994 391.061 188.477 343.451 188.477Z" fill="#0033C0"/>
<path d="M343.449 188.477C393.075 188.477 433.305 174.939 433.305 158.239C433.305 141.539 393.075 128 343.449 128C293.822 128 253.592 141.539 253.592 158.239C253.592 174.939 293.822 188.477 343.449 188.477Z" fill="#665098"/>
<path d="M282.368 384.563C302.454 384.563 318.737 368.222 318.737 348.065C318.737 327.908 302.454 311.567 282.368 311.567C262.283 311.567 246 327.908 246 348.065C246 368.222 262.283 384.563 282.368 384.563Z" fill="white"/>
</svg>
