<svg width="173" height="48" viewBox="0 0 173 48" fill="none" xmlns="http://www.w3.org/2000/svg">
<path d="M164.742 14.9428V17.965H171.555V20.719H164.742V26.5131H161.184V12.2246H172.163V14.9607H164.742V14.9428Z" fill="white"/>
<path d="M129.466 26.5131L126.605 21.4165H124.387V26.5131H120.793V12.2246H127.231C127.642 12.2246 128.035 12.2246 128.447 12.2425C129.09 12.2783 131.362 12.4213 132.47 14.46C132.667 14.8534 133.042 15.676 133.042 16.8563C133.042 18.4479 132.417 19.3063 131.934 19.7712C131.737 19.9679 131.487 20.1647 131.272 20.2898C131.004 20.4329 130.7 20.576 130.11 20.7906L133.4 26.4952H129.466V26.5131ZM127.41 14.8713H124.369V18.7519H127.32C127.463 18.7519 127.874 18.7519 128.268 18.6088C129.43 18.2154 129.466 17.1245 129.466 16.7669C129.466 14.9071 128.035 14.8713 127.41 14.8713Z" fill="white"/>
<path fill-rule="evenodd" clip-rule="evenodd" d="M85.9643 48L58.0703 0H113.84L85.9643 48ZM89.3739 26.5178L88.6586 24.2288H83.4906L82.7753 26.5178H78.9663L84.2774 12.2293H87.8718L93.1829 26.5178H89.3739ZM86.0656 15.6271L84.3132 21.6536H87.8181L86.0656 15.6271Z" fill="white"/>
<path d="M52.4096 26.5131H48.7258L46.1508 17.357L43.5578 26.5131H39.874L36.2617 12.2246H39.8382L41.9484 22.0603L44.5413 12.2246H47.7244L50.3889 22.0603L52.4812 12.2246H56.0398L52.4096 26.5131Z" fill="white"/>
<path d="M11.1587 24.581C10.6937 25.0996 9.63868 26.0295 7.90408 26.4408C7.11724 26.6196 6.41983 26.6554 5.61511 26.6554H0V12.3848H4.56004C5.00711 12.3848 5.43629 12.3848 5.84759 12.4026C6.45559 12.4384 8.83397 12.5099 10.5865 13.9406C10.8547 14.1373 11.266 14.5307 11.7131 15.2282C12.2138 16.015 12.786 17.2847 12.786 19.3949C12.786 22.0952 11.9276 23.6868 11.1587 24.581ZM8.40479 16.5694C8.20808 16.319 7.7789 15.8362 7.00995 15.6037C6.3483 15.3891 5.74029 15.407 5.04287 15.407H3.61227V23.812H4.7031C5.75817 23.812 6.97418 23.7583 7.90408 23.0609C8.63726 22.5065 9.22738 21.4872 9.22738 19.538C9.2095 18.4292 9.08432 17.4278 8.40479 16.5694Z" fill="white"/>
</svg>
