<svg width="517" height="487" viewBox="0 0 517 487" fill="none" xmlns="http://www.w3.org/2000/svg">
<path d="M0 234.5C3.73673e-06 191.757 11.2512 149.767 32.6228 112.75C53.9944 75.7333 84.7333 44.9944 121.75 23.6228L243.5 234.5L0 234.5Z" fill="#072913" fill-opacity="0.5"/>
<path d="M394.75 26.6224C431.767 47.994 462.506 78.733 483.877 115.75C505.249 152.767 516.5 194.757 516.5 237.5L273 237.5L394.75 26.6224Z" fill="#072913" fill-opacity="0.8"/>
<path d="M135.75 32.6228C172.767 11.2512 214.757 -4.12727e-05 257.5 1.13541e-10C300.243 4.1273e-05 342.234 11.2513 379.25 32.623L257.5 243.5L135.75 32.6228Z" fill="#072913"/>
</svg>
